<?xml version="1.0" encoding="UTF-8" standalone="no"?>
<!-- Created with Inkscape (http://www.inkscape.org/) -->

<svg
   width="512"
   height="512"
   viewBox="0 0 135.46667 135.46667"
   version="1.1"
   id="svg5"
   inkscape:version="1.1 (c68e22c387, 2021-05-23)"
   sodipodi:docname="arrows.svg"
   xmlns:inkscape="http://www.inkscape.org/namespaces/inkscape"
   xmlns:sodipodi="http://sodipodi.sourceforge.net/DTD/sodipodi-0.dtd"
   xmlns="http://www.w3.org/2000/svg"
   xmlns:svg="http://www.w3.org/2000/svg">
  <g
     id="layer1">
    <path
       d="m 130.10992,87.156025 c -0.22973,0.27746 -0.46038,0.55826 -0.68647,0.83086 -0.28631,0.0316 -0.85811,0.0962 -1.14442,0.12784 -3.4154,0.60237 -6.91921,0.0978 -10.31935,0.71378 
       2.73324,0.87129 5.63612,0.2046 8.41056,0.82559 -0.6625,0.12604 -1.31963,0.24563 -1.98421,0.30075 -16.07659,0.21403 -32.227396,-0.37554 -47.983731,-3.81571 -5.141189,-1.45293 
       -10.676425,-1.19137 -15.50808,-3.71862 -6.922212,-0.53623 -12.657922,-4.69256 -18.442015,-8.08131 -0.14299,-0.0995 -0.424174,-0.29614 -0.568002,-0.39119 -0.592905,-0.32721 -1.234298,
       -0.569705 -1.877148,-0.780818 -1.692789,-0.465351 -3.368251,-0.993173 -5.08442,-1.354138 0.779681,0.764607 1.735229,1.29377 2.760619,1.642683 -0.210911,0.350823 -0.416531,0.696003 
       -0.626156,1.042473 -2.144414,-1.290371 -4.381996,-2.440898 -6.777052,-3.199209 1.67049,1.892117 3.562388,5.732539 5.663691,7.053769 0.672542,0.38504 1.313025,0.82862 1.986439,1.21391
        0.738927,0.41578 1.639789,0.64775 2.088432,1.43078 l -0.606221,-8.5e-4 c -0.976571,-0.0149 -1.943806,0.16433 -2.858528,0.50082 -0.613612,-0.16911 -1.226146,-0.3462 -1.83563,-0.5307
         -1.122164,-0.2795 -2.254775,-0.52175 -3.378999,-0.79356 0.943302,0.5094 1.86821,1.05626 2.730576,1.69113 -1.687944,-0.28747 -3.362391,-0.69256 -4.962776,-1.30856 -3.931774,-1.48324
          -6.528973,-7.239726 -10.132344,-9.315421 -2.79744,-2.071652 -5.693394,-4.019005 -8.410186,-6.200899 -1.2693122,-0.816913 -2.5134475,-1.674163 -3.6718861,-2.643842 -0.049031,-0.208558
          -0.1374856,-0.623109 -0.1813193,-0.8303 1.6590982,0.769471 2.9656262,2.495796 4.9018614,2.47659 C 8.9921798,61.486557 6.0427571,59.312965 3.1015995,57.149832 2.6216408,55.73328 
          1.5270524,54.690071 0.59180404,53.567098 L 0.84945424,53.1723 C 1.3478483,53.057442 1.8564213,52.973541 2.3630612,52.879739 c 0.076984,-0.239534 0.2345714,-0.714162 0.316317,-0.95243
          0.2822461,0.04503 0.8426272,0.138635 1.124575,0.188345 0.1683942,-0.223288 0.5083911,-0.666673 0.6751564,-0.8857 1.5059191,0.256296 2.9849123,0.630294 4.4250602,1.133897 
          1.3909092,0.927187 2.9926132,0.07777 4.4780182,0.362835 5.001033,2.605603 10.699557,3.469697 15.86646,5.68298 1.520021,0.900562 3.07601,1.764852 4.842922,2.047584 2.429545,0.712204 
          5.040914,0.583977 7.415955,1.446389 1.031883,-0.521252 4.543214,0.893435 5.566692,1.427856 -2.533845,1.185866 -9.435091,1.191391 -12.059909,2.275184 0.82691,0.23334 1.682055,0.345915
          2.540819,0.312308 -0.115588,0.206847 -0.354648,0.614874 -0.47536,0.821528 3.684454,1.043739 6.884348,3.219702 10.409412,4.650466 0.178288,-0.182966 0.532839,-0.551822 0.712046,
          -0.733371 1.131829,0.403328 2.290369,0.744365 3.360223,1.299468 4.521072,2.680647 9.711637,3.851297 14.604729,5.665107 12.406664,3.41147 25.22703,4.95479 38.012343,5.93422 0.55319,
         0.0398 1.11385,0.0653 1.67265,0.0844 0.58619,0.0313 1.1821,0.0258 1.77681,0.0251 7.86933,0.10845 15.77286,0.39663 23.62463,0.21895 1.8582,-0.28734 3.30252,1.04031 4.70168,2.03564 
         -1.77696,0.99899 -3.81002,1.46434 -5.84436,1.23591"
       style="fill:#e7e7e7;fill-opacity:1;fill-rule:nonzero;stroke:none;stroke-width:0.85287"
       id="path15911" />
    <text
       xml:space="preserve"
       style="font-style:normal;font-variant:normal;font-weight:normal;font-stretch:normal;font-size:24.6479px;line-height:1.25;font-family:'Reem Kufi';-inkscape-font-specification:'Reem Kufi';fill-opacity:1;stroke:none;stroke-width:0.616199"
       x="64.672798"
       y="64.024818"
       id="text4598"><tspan
         id="tspan4596"
         style="font-style:normal;font-variant:normal;font-weight:normal;font-stretch:normal;font-family:'Reem Kufi';-inkscape-font-specification:'Reem Kufi';fill-opacity:1;stroke-width:0.616199"
         x="64.672798"
         y="64.024818"
         sodipodi:role="line">...there</tspan></text>
  </g>
</svg>
