<svg id="visual" viewBox="0 0 675 900" width="675" height="900" xmlns="http://www.w3.org/2000/svg" xmlns:xlink="http://www.w3.org/1999/xlink" version="1.1">
<path d="M133 0L137 18.8C141 37.7 149 75.3 150.5 112.8C152 150.3 147 187.7 154.7 225.2C162.3 262.7 182.7 300.3 181 337.8C179.3 375.3 155.7 412.7 143.5 450.2C131.3 487.7 130.7 525.3 138.5 
562.8C146.3 600.3 162.7 637.7 164.2 675.2C165.7 712.7 152.3 750.3 154 787.8C155.7 825.3 172.3 862.7 180.7 881.3L189 900L0 900L0 881.3C0 862.7 0 825.3 0 787.8C0 750.3 0 712.7 0 675.2C0 637.7 
0 600.3 0 562.8C0 525.3 0 487.7 0 450.2C0 412.7 0 375.3 0 337.8C0 300.3 0 262.7 0 225.2C0 187.7 0 150.3 0 112.8C0 75.3 0 37.7 0 18.8L0 0Z" fill="#6ee0aa"></path>

<path d="M135 0L133.2 18.8C131.3 37.7 127.7 75.3 123.5 112.8C119.3 150.3 114.7 187.7 110.8 225.2C107 262.7 104 300.3 104 337.8C104 375.3 107 412.7 115.3 450.2C123.7 487.7 137.3 525.3 135.5 
562.8C133.7 600.3 116.3 637.7 114.3 675.2C112.3 712.7 125.7 750.3 133.8 787.8C142 825.3 145 862.7 146.5 881.3L148 900L0 900L0 881.3C0 862.7 0 825.3 0 787.8C0 750.3 0 712.7 0 675.2C0 637.7 0 
600.3 0 562.8C0 525.3 0 487.7 0 450.2C0 412.7 0 375.3 0 337.8C0 300.3 0 262.7 0 225.2C0 187.7 0 150.3 0 112.8C0 75.3 0 37.7 0 18.8L0 0Z" fill="#1cd185"></path>

<path d="M82 0L83.5 18.8C85 37.7 88 75.3 82 112.8C76 150.3 61 187.7 52.8 225.2C44.7 262.7 43.3 300.3 49.8 337.8C56.3 375.3 70.7 412.7 75.8 450.2C81 487.7 77 525.3 70 562.8C63 600.3 53 637.7 
51.2 675.2C49.3 712.7 55.7 750.3 63.3 787.8C71 825.3 80 862.7 84.5 881.3L89 900L0 900L0 881.3C0 862.7 0 825.3 0 787.8C0 750.3 0 712.7 0 675.2C0 637.7 0 600.3 0 562.8C0 525.3 0 487.7 0 450.2C0 
412.7 0 375.3 0 337.8C0 300.3 0 262.7 0 225.2C0 187.7 0 150.3 0 112.8C0 75.3 0 37.7 0 18.8L0 0Z" fill="#1cd185"></path></svg>