<svg id="visual" viewBox="0 0 900 450" width="900" height="450" xmlns="http://www.w3.org/2000/svg" xmlns:xlink="http://www.w3.org/1999/xlink" version="1.1">
<path d="M0 338L10 335C20 332 40 326 60 328.2C80 330.3 100 340.7 120 344.2C140 347.7 160 344.3 180 338.8C200 333.3 220 325.7 240 322.5C260 319.3 280 320.7 300 321.7C320 322.7 340 323.3 360 
326.7C380 330 400 336 420 338.5C440 341 460 340 480 339.3C500 338.7 520 338.3 540 336C560 333.7 580 329.3 600 329C620 328.7 640 332.3 660 332C680 331.7 700 327.3 720 325.8C740 324.3 760 325.7 
780 325C800 324.3 820 321.7 840 324C860 326.3 880 333.7 890 337.3L900 341L900 451L890 451C880 451 860 451 840 451C820 451 800 451 780 451C760 451 740 451 720 451C700 451 680 451 660 451C640 451
 620 451 600 451C580 451 560 451 540 451C520 451 500 451 480 451C460 451 440 451 420 451C400 451 380 451 360 451C340 451 320 451 300 451C280 451 260 451 240 451C220 451 200 451 180 451C160 451 
 140 451 120 451C100 451 80 451 60 451C40 451 20 451 10 451L0 451Z" fill="#6ee0aa"></path>

 <path d="M0 374L10 370.2C20 366.3 40 358.7 60 356.7C80 354.7 100 358.3 120 362C140 365.7 160 369.3 180 
 368C200 366.7 220 360.3 240 358.5C260 356.7 280 359.3 300 359C320 358.7 340 355.3 360 356.2C380 357 400 362 420 360.8C440 359.7 460 352.3 480 349.8C500 347.3 520 349.7 540 351C560 352.3 580 
 352.7 600 356.2C620 359.7 640 366.3 660 367C680 367.7 700 362.3 720 359.2C740 356 760 355 780 353.5C800 352 820 350 840 349.8C860 349.7 880 351.3 890 352.2L900 353L900 451L890 451C880 451 860 
 451 840 451C820 451 800 451 780 451C760 451 740 451 720 451C700 451 680 451 660 451C640 451 620 451 600 451C580 451 560 451 540 451C520 451 500 451 480 451C460 451 440 451 420 451C400 451 380
  451 360 451C340 451 320 451 300 451C280 451 260 451 240 451C220 451 200 451 180 451C160 451 140 451 120 451C100 451 80 451 60 451C40 451 20 451 10 451L0 451Z" fill="#41d692"></path>

  <path d="M0 397L10 397.2C20 397.3 40 397.7 60 395.5C80 393.3 100 388.7 120 388.3C140 388 160 392 180 393.3C200 394.7 220 393.3 240 392.3C260 391.3 280 390.7 300 390C320 389.3 340 388.7 360 
  385.8C380 383 400 378 420 376.7C440 375.3 460 377.7 480 380.8C500 384 520 388 540 389.3C560 390.7 580 389.3 600 390.3C620 391.3 640 394.7 660 396.2C680 397.7 700 397.3 720 393.3C740 389.3 
  760 381.7 780 381C800 380.3 820 386.7 840 388.3C860 390 880 387 890 385.5L900 384L900 451L890 451C880 451 860 451 840 451C820 451 800 451 780 451C760 451 740 451 720 451C700 451 680 451 660 
  451C640 451 620 451 600 451C580 451 560 451 540 451C520 451 500 451 480 451C460 451 440 451 420 451C400 451 380 451 360 451C340 451 320 451 300 451C280 451 260 451 240 451C220 451 200 451 180
   451C160 451 140 451 120 451C100 451 80 451 60 451C40 451 20 451 10 451L0 451Z" fill="#18be79"></path>

   <path d="M0 410L10 409.3C20 408.7 40 407.3 60 406.3C80 405.3 100 404.7 120 406.5C140 408.3 160 412.7 180 413.3C200 414 220 411 240 411.3C260 411.7 280 415.3 300 417.2C320 419 340 419 360 
   417.2C380 415.3 400 411.7 420 412C440 412.3 460 416.7 480 417C500 417.3 520 413.7 540 412.8C560 412 580 414 600 415.3C620 416.7 640 417.3 660 417.7C680 418 700 418 720 418.2C740 418.3 760 
   418.7 780 417.7C800 416.7 820 414.3 840 412.8C860 411.3 880 410.7 890 410.3L900 410L900 451L890 451C880 451 860 451 840 451C820 451 800 451 780 451C760 451 740 451 720 451C700 451 680 451 
   660 451C640 451 620 451 600 451C580 451 560 451 540 451C520 451 500 451 480 451C460 451 440 451 420 451C400 451 380 451 360 451C340 451 320 451 300 451C280 451 260 451 240 451C220 451 200 
   451 180 451C160 451 140 451 120 451C100 451 80 451 60 451C40 451 20 451 10 451L0 451Z" fill="#ffffff"></path></svg>