<svg id="visual" viewBox="0 0 1200 400" width="1200" height="400" xmlns="http://www.w3.org/2000/svg" xmlns:xlink="http://www.w3.org/1999/xlink" version="1.1"><path d="M0 294L28.5 285.2C57 276.3 114 258.7 171.2 255C228.3 251.3 285.7 261.7 342.8 269.5C400 277.3 457 282.7 514.2 287.2C571.3 291.7 628.7 295.3 685.8 289.8C743 284.3 800 269.7 857.2 262.5C914.3 255.3 971.7 255.7 1028.8 259.8C1086 264 1143 272 1171.5 276L1200 280L1200 401L1171.5 401C1143 401 1086 401 1028.8 401C971.7 401 914.3 401 857.2 401C800 401 743 401 685.8 401C628.7 401 571.3 401 514.2 401C457 401 400 401 342.8 401C285.7 401 228.3 401 171.2 401C114 401 57 401 28.5 401L0 401Z" fill="#6ee0aa"></path><path d="M0 265L28.5 269.3C57 273.7 114 282.3 171.2 284.8C228.3 287.3 285.7 283.7 342.8 281.2C400 278.7 457 277.3 514.2 282.3C571.3 287.3 628.7 298.7 685.8 304.3C743 310 800 310 857.2 304.5C914.3 299 971.7 288 1028.8 289.3C1086 290.7 1143 304.3 1171.5 311.2L1200 318L1200 401L1171.5 401C1143 401 1086 401 1028.8 401C971.7 401 914.3 401 857.2 401C800 401 743 401 685.8 401C628.7 401 571.3 401 514.2 401C457 401 400 401 342.8 401C285.7 401 228.3 401 171.2 401C114 401 57 401 28.5 401L0 401Z" fill="#4ed998"></path><path d="M0 322L28.5 317.8C57 313.7 114 305.3 171.2 304.3C228.3 303.3 285.7 309.7 342.8 310.7C400 311.7 457 307.3 514.2 307.3C571.3 307.3 628.7 311.7 685.8 311.3C743 311 800 306 857.2 305.3C914.3 304.7 971.7 308.3 1028.8 313.3C1086 318.3 1143 324.7 1171.5 327.8L1200 331L1200 401L1171.5 401C1143 401 1086 401 1028.8 401C971.7 401 914.3 401 857.2 401C800 401 743 401 685.8 401C628.7 401 571.3 401 514.2 401C457 401 400 401 342.8 401C285.7 401 228.3 401 171.2 401C114 401 57 401 28.5 401L0 401Z" fill="#1cd185"></path><path d="M0 361L28.5 354.7C57 348.3 114 335.7 171.2 335.5C228.3 335.3 285.7 347.7 342.8 351.7C400 355.7 457 351.3 514.2 348.5C571.3 345.7 628.7 344.3 685.8 341.8C743 339.3 800 335.7 857.2 334.3C914.3 333 971.7 334 1028.8 336.2C1086 338.3 1143 341.7 1171.5 343.3L1200 345L1200 401L1171.5 401C1143 401 1086 401 1028.8 401C971.7 401 914.3 401 857.2 401C800 401 743 401 685.8 401C628.7 401 571.3 401 514.2 401C457 401 400 401 342.8 401C285.7 401 228.3 401 171.2 401C114 401 57 401 28.5 401L0 401Z" fill="#16b573"></path><path d="M0 364L28.5 364.3C57 364.7 114 365.3 171.2 363C228.3 360.7 285.7 355.3 342.8 355.3C400 355.3 457 360.7 514.2 363.7C571.3 366.7 628.7 367.3 685.8 369.2C743 371 800 374 857.2 373.3C914.3 372.7 971.7 368.3 1028.8 368.7C1086 369 1143 374 1171.5 376.5L1200 379L1200 401L1171.5 401C1143 401 1086 401 1028.8 401C971.7 401 914.3 401 857.2 401C800 401 743 401 685.8 401C628.7 401 571.3 401 514.2 401C457 401 400 401 342.8 401C285.7 401 228.3 401 171.2 401C114 401 57 401 28.5 401L0 401Z" fill="#129962"></path></svg>