<svg id="visual" viewBox="0 0 1200 400" width="1200" height="400" xmlns="http://www.w3.org/2000/svg" xmlns:xlink="http://www.w3.org/1999/xlink" version="1.1"><path d="M0 138L28.5 135.2C57 132.3 114 126.7 171.2 126.5C228.3 126.3 285.7 131.7 342.8 136.7C400 141.7 457 146.3 514.2 143.2C571.3 140 628.7 129 685.8 127.3C743 125.7 800 133.3 857.2 134.8C914.3 136.3 971.7 131.7 1028.8 130.2C1086 128.7 1143 130.3 1171.5 131.2L1200 132L1200 0L1171.5 0C1143 0 1086 0 1028.8 0C971.7 0 914.3 0 857.2 0C800 0 743 0 685.8 0C628.7 0 571.3 0 514.2 0C457 0 400 0 342.8 0C285.7 0 228.3 0 171.2 0C114 0 57 0 28.5 0L0 0Z" fill="#6ee0aa"></path><path d="M0 103L28.5 103.3C57 103.7 114 104.3 171.2 102.3C228.3 100.3 285.7 95.7 342.8 98.2C400 100.7 457 110.3 514.2 115.3C571.3 120.3 628.7 120.7 685.8 115C743 109.3 800 97.7 857.2 92.2C914.3 86.7 971.7 87.3 1028.8 93.3C1086 99.3 1143 110.7 1171.5 116.3L1200 122L1200 0L1171.5 0C1143 0 1086 0 1028.8 0C971.7 0 914.3 0 857.2 0C800 0 743 0 685.8 0C628.7 0 571.3 0 514.2 0C457 0 400 0 342.8 0C285.7 0 228.3 0 171.2 0C114 0 57 0 28.5 0L0 0Z" fill="#4ed998"></path><path d="M0 89L28.5 88.8C57 88.7 114 88.3 171.2 88.8C228.3 89.3 285.7 90.7 342.8 87.3C400 84 457 76 514.2 76.3C571.3 76.7 628.7 85.3 685.8 91C743 96.7 800 99.3 857.2 98.3C914.3 97.3 971.7 92.7 1028.8 87.2C1086 81.7 1143 75.3 1171.5 72.2L1200 69L1200 0L1171.5 0C1143 0 1086 0 1028.8 0C971.7 0 914.3 0 857.2 0C800 0 743 0 685.8 0C628.7 0 571.3 0 514.2 0C457 0 400 0 342.8 0C285.7 0 228.3 0 171.2 0C114 0 57 0 28.5 0L0 0Z" fill="#1cd185"></path><path d="M0 52L28.5 51.8C57 51.7 114 51.3 171.2 52.3C228.3 53.3 285.7 55.7 342.8 54.3C400 53 457 48 514.2 49.8C571.3 51.7 628.7 60.3 685.8 59.3C743 58.3 800 47.7 857.2 48.5C914.3 49.3 971.7 61.7 1028.8 63.5C1086 65.3 1143 56.7 1171.5 52.3L1200 48L1200 0L1171.5 0C1143 0 1086 0 1028.8 0C971.7 0 914.3 0 857.2 0C800 0 743 0 685.8 0C628.7 0 571.3 0 514.2 0C457 0 400 0 342.8 0C285.7 0 228.3 0 171.2 0C114 0 57 0 28.5 0L0 0Z" fill="#16b573"></path><path d="M0 17L28.5 18.7C57 20.3 114 23.7 171.2 28.2C228.3 32.7 285.7 38.3 342.8 37C400 35.7 457 27.3 514.2 26.7C571.3 26 628.7 33 685.8 33.3C743 33.7 800 27.3 857.2 28C914.3 28.7 971.7 36.3 1028.8 36.5C1086 36.7 1143 29.3 1171.5 25.7L1200 22L1200 0L1171.5 0C1143 0 1086 0 1028.8 0C971.7 0 914.3 0 857.2 0C800 0 743 0 685.8 0C628.7 0 571.3 0 514.2 0C457 0 400 0 342.8 0C285.7 0 228.3 0 171.2 0C114 0 57 0 28.5 0L0 0Z" fill="#129962"></path></svg>