<?xml version="1.0" encoding="UTF-8" standalone="no"?>
<!-- Created with Inkscape (http://www.inkscape.org/) -->

<svg
   width="512"
   height="512"
   viewBox="0 0 135 135"
   version="1.1"
   id="svg5"
   inkscape:version="1.1 (c68e22c387, 2021-05-23)"
   sodipodi:docname="prop.svg"
   xmlns:inkscape="http://www.inkscape.org/namespaces/inkscape"
   xmlns:sodipodi="http://sodipodi.sourceforge.net/DTD/sodipodi-0.dtd"
   xmlns="http://www.w3.org/2000/svg"
   xmlns:svg="http://www.w3.org/2000/svg">
  <g
     id="layer1">
    <path
       id="path1292"
       style="fill:#ffffff;fill-opacity:1;stroke:none;stroke-width:0.357687px;stroke-linecap:butt;stroke-linejoin:miter;stroke-opacity:1"
       d="M 74.892631,5.1711806 C 74.114473,5.18908 73.25665,5.3460323 72.669665,5.484156 71.539357,5.7501303 70.293619,6.4390845 69.831921,7.5045284 62.379721,24.701745 62.364833,46.64307 
       64.07051,66.534728 c 0.389939,4.547495 1.877487,10.798634 2.096519,13.59769 -0.902718,0.89215 -1.58203,1.984839 -1.982646,3.189139 -0.102305,0.04112 -0.124266,0.04931 -0.308784,0.108292 
       -3.287675,1.469656 -8.709331,2.243136 -12.818045,4.024672 -2.748132,1.191597 -5.327665,2.763861 -7.824397,4.418693 -6.84553,4.537211 -11.050665,9.662976 -19.51489,15.039606 
       -7.524289,4.77957 -19.4966173,11.30523 -23.15952317,13.37065 -1.19846824,0.67579 0.53958287,2.85572 1.48384227,3.85979 0.7954935,0.84589 2.0153311,1.58041 3.1688816,1.44752 18.6193283,
       -2.1448 37.6284833,-13.10301 54.0023263,-24.526 3.194412,-2.228535 7.061316,-5.766876 9.566724,-7.746149 0.968169,0.397074 2.004388,0.60185 3.050819,0.602897 0.03448,-10e-6 0.06893,
       -2.43e-4 0.103389,-7.15e-4 2.158286,2.118347 4.491584,4.671215 6.924595,6.475387 2.406016,1.78416 5.057674,3.23268 7.739167,4.56749 7.352109,3.65979 13.893852,4.7383 22.782272,9.3802 
       7.90138,4.12642 19.53937,11.23189 23.15953,13.37134 1.18446,0.7 2.20279,-1.8952 2.60021,-3.215 0.33482,-1.11184 0.36073,-2.53531 -0.33114,-3.46787 -11.16713,-15.0524 -30.16138,-26.035543
        -48.240907,-34.50421 -2.070846,-0.970012 -4.92762,-2.796612 -7.449247,-4.107113 -0.506045,-1.070333 -1.241642,-2.016065 -2.154505,-2.769975 0.02089,-0.08558 0.03759,-0.172345 0.0468,
        -0.26128 0.371078,-3.58204 2.412172,-8.66384 2.923671,-13.112857 0.34212,-2.975749 0.270691,-5.995832 0.08592,-8.985483 -0.506574,-8.197011 -2.843196,-14.401955 -3.267383,-24.420508 
        -0.377084,-8.90601 -0.04275,-22.5371 0,-26.7419806 0.0078,-0.7738851 -0.860603,-0.9808009 -1.861091,-0.9577917 z"
      />
  </g>
</svg>
