{
  "asset": {
    "copyright": "VitroidFPV",
    "generator": "Khronos glTF Blender I/O v3.5.30",
    "version": "2.0"
  },
  "scene": 0,
  "scenes": [
    {
      "name": "Scene",
      "nodes": [
        0
      ]
    }
  ],
  "nodes": [
    {
      "mesh": 0,
      "name": "Prop.004"
    }
  ],
  "materials": [
    {
      "doubleSided": true,
      "name": "Material",
      "pbrMetallicRoughness": {}
    }
  ],
  "meshes": [
    {
      "name": "Cylinder.011",
      "primitives": [
        {
          "attributes": {
            "POSITION": 0,
            "TEXCOORD_0": 1,
            "NORMAL": 2
          },
          "indices": 3,
          "material": 0
        }
      ]
    }
  ],
  "accessors": [
    {
      "bufferView": 0,
      "componentType": 5126,
      "count": 3469,
      "max": [
        2.1488494873046875,
        0.13764917850494385,
        1.3361380100250244
      ],
      "min": [
        -2.2115261554718018,
        -0.13764917850494385,
        -2.503072738647461
      ],
      "type": "VEC3"
    },
    {
      "bufferView": 1,
      "componentType": 5126,
      "count": 3469,
      "type": "VEC2"
    },
    {
      "bufferView": 2,
      "componentType": 5126,
      "count": 3469,
      "type": "VEC3"
    },
    {
      "bufferView": 3,
      "componentType": 5123,
      "count": 15546,
      "type": "SCALAR"
    }
  ],
  "bufferViews": [
    {
      "buffer": 0,
      "byteLength": 41628,
      "byteOffset": 0,
      "target": 34962
    },
    {
      "buffer": 0,
      "byteLength": 27752,
      "byteOffset": 41628,
      "target": 34962
    },
    {
      "buffer": 0,
      "byteLength": 41628,
      "byteOffset": 69380,
      "target": 34962
    },
    {
      "buffer": 0,
      "byteLength": 31092,
      "byteOffset": 111008,
      "target": 34963
    }
  ],
  "buffers": [
    {
      "uri": "prop1_data.bin",
      "byteLength": 142100
    }
  ]
}